<svg xmlns="http://www.w3.org/2000/svg" viewBox="0 0 512 512"><rect width="512" height="512" rx="112" fill="#0b5962"/><circle cx="382" cy="127" r="54" fill="#f3ad45"/><path d="M65 302c76-94 137-80 194-37 56 42 101 29 188-31v156H65z" fill="#cfe982"/><path d="M65 335c86-45 142-27 201 6 55 31 106 25 181-18v91H65z" fill="#64c9c5"/><path d="M65 382c93-28 149-7 205 15 60 24 108 17 177-12v52H65z" fill="#eaf8f4"/><path d="M120 188h95l-13 112h-69z" fill="#fff"/><path d="m143 116 25-34 25 34v72h-50z" fill="#fff"/><rect x="151" y="131" width="34" height="40" fill="#f3ad45"/></svg>
